#!OML:ASF H:\Terrain\Walking\May29\JustinRory\rory.ASF
:FULLY-SPECIFIED
:DEGREES
1105
root 6.99356 16.7244 11.0922 -171.759 -21.4371 -170.224
lowerback 23.6725 -2.52819 -1.58772
upperback 5.31396 -4.5254 8.97021
thorax -6.37441 -2.81148 12.4023
lowerneck -13.5708 -2.00796 -1.29861
upperneck -6.68851 -3.38945 3.27867
head 0.232612 -2.03982 1.09663
rclavicle 3.84648e-014 -2.98177e-014
rhumerus -31.9775 0.219278 -57.7761
rradius 130.447
rwrist -28.0594
rhand 1.08415 37.8618
rfingers 7.12502
rthumb 26.6284 -350.286
lclavicle 3.84648e-014 -2.98177e-014
lhumerus 6.76024 -33.2702 62.6027
lradius 125.624
lwrist 25.082
lhand -12.5719 12.3699
lfingers 7.12502
lthumb 13.5058 41.912
rfemur -44.6143 -14.553 30.1396
rtibia 61.6663
rfoot -21.4655 -15.75
rtoes 8.80513
lfemur -52.2941 -5.19712 -3.831
ltibia 64.4805
lfoot -18.3474 -10.5413
ltoes -5.4994
1106
root 6.9707 16.6754 11.129 -171.628 -20.7573 -171.074
lowerback 23.9973 -2.27096 -1.98075
upperback 5.51632 -4.30733 8.65041
thorax -6.36367 -2.70499 12.2192
lowerneck -13.4234 -2.07094 -1.34441
upperneck -6.98378 -3.48463 3.20578
head 0.115195 -2.10067 1.08128
rclavicle -1.74931e-014 4.17448e-015
rhumerus -31.7501 0.690457 -58.4135
rradius 130.514
rwrist -28.0212
rhand 0.919439 37.9235
rfingers 7.12502
rthumb 26.4707 -350.248
lclavicle -1.74931e-014 4.17448e-015
lhumerus 6.75235 -32.8609 62.6975
lradius 125.365
lwrist 24.4301
lhand -14.0149 12.6371
lfingers 7.12502
lthumb 12.1147 42.2663
rfemur -45.1032 -14.4687 29.1048
rtibia 62.672
rfoot -21.5277 -15.4302
rtoes 8.9406
lfemur -52.3149 -5.02211 -4.88062
ltibia 65.0191
lfoot -18.8215 -10.14
ltoes -7.18067
1107
root 6.94395 16.6288 11.1616 -171.637 -19.798 -171.971
lowerback 24.4224 -1.94608 -2.31086
upperback 5.69092 -3.97804 8.15936
thorax -6.4773 -2.5297 11.7761
lowerneck -13.0604 -2.18135 -1.19855
upperneck -7.36922 -3.66267 3.14568
head -0.0667841 -2.20685 1.03828
rclavicle 1.11319e-014 -2.00773e-014
rhumerus -31.6434 1.28532 -59.3239
rradius 130.436
rwrist -27.7383
rhand 0.434355 37.8945
rfingers 7.12502
rthumb 26.0063 -350.346
lclavicle 1.11319e-014 -2.00773e-014
lhumerus 6.34619 -32.6017 62.9907
lradius 125.214
lwrist 23.476
lhand -12.1399 12.0107
lfingers 7.12502
lthumb 13.9222 41.5246
rfemur -45.4063 -14.1458 27.929
rtibia 63.7106
rfoot -21.6995 -15.1322
rtoes 8.99095
lfemur -52.066 -4.72236 -6.01378
ltibia 65.6079
lfoot -19.3445 -9.83227
ltoes -2.52656
1108
root 6.90951 16.5666 11.1918 -171.653 -18.6621 -172.854
lowerback 24.866 -1.62118 -2.36739
upperback 5.81881 -3.58211 7.57635
thorax -6.68579 -2.3166 11.0441
lowerneck -12.9396 -2.33112 -1.2113
upperneck -7.47535 -3.85937 3.09069
head -0.117019 -2.30693 1.01804
rclavicle -4.27387e-014 6.32135e-014
rhumerus -31.354 1.63653 -60.1272
rradius 130.086
rwrist -26.5492
rhand 0.153085 38.092
rfingers 7.12502
rthumb 25.737 -350.188
lclavicle -4.27387e-014 6.32135e-014
lhumerus 5.39463 -32.3055 63.6006
lradius 125.298
lwrist 22.4611
lhand -11.1694 11.6688
lfingers 7.12502
lthumb 14.8573 41.1161
rfemur -45.7291 -13.6528 26.6985
rtibia 64.8031
rfoot -22.3512 -14.6307
rtoes 9.83512
lfemur -51.8947 -4.28074 -7.18283
ltibia 66.3067
lfoot -19.7834 -9.46891
ltoes -9.38644
1109
root 6.86868 16.4932 11.226 -171.56 -17.4838 -173.756
lowerback 25.2409 -1.46324 -2.42559
upperback 5.91329 -3.41404 7.02479
thorax -6.84106 -2.22031 10.4115
lowerneck -12.9495 -2.34923 -1.78573
upperneck -7.43865 -3.80036 3.36965
head -0.0858438 -2.26013 1.20515
rclavicle -5.28767e-014 6.36111e-015
rhumerus -30.6261 2.35213 -60.8325
rradius 129.681
rwrist -24.9718
rhand 0.49621 38.4478
rfingers 7.12502
rthumb 26.0656 -349.784
lclavicle -5.28767e-014 6.36111e-015
lhumerus 3.89407 -31.4239 64.2758
lradius 125.625
lwrist 21.868
lhand -10.6551 11.5671
lfingers 7.12502
lthumb 15.3527 40.9771
rfemur -46.2975 -13.2585 25.4808
rtibia 65.9657
rfoot -22.8907 -13.9167
rtoes 10.4321
lfemur -51.9793 -3.71011 -8.43731
ltibia 67.0842
lfoot -20.2129 -8.91217
ltoes -12.8763
1110
root 6.82766 16.4098 11.261 -171.412 -16.0774 -174.839
lowerback 25.4272 -1.2098 -2.92072
upperback 6.06877 -3.24687 6.46756
thorax -6.80545 -2.13349 10.0126
lowerneck -12.7538 -2.34049 -2.57655
upperneck -7.5758 -3.67893 3.92306
head -0.133872 -2.18119 1.52681
rclavicle 5.57591e-014 -3.81667e-014
rhumerus -29.8016 3.56414 -61.5473
rradius 129.466
rwrist -24.212
rhand 0.604498 38.7562
rfingers 7.12502
rthumb 26.1692 -349.46
lclavicle 5.57591e-014 -3.81667e-014
lhumerus 2.43883 -30.3554 64.8094
lradius 125.995
lwrist 21.5625
lhand -10.7558 10.858
lfingers 7.12502
lthumb 15.2557 40.2755
rfemur -47.025 -12.8186 24.077
rtibia 67.2295
rfoot -23.0397 -13.238
rtoes 10.2089
lfemur -52.0365 -2.90098 -9.93199
ltibia 67.9061
lfoot -20.5578 -8.53197
ltoes -11.6418
1111
root 6.78577 16.3234 11.2974 -171.209 -14.4623 -176.303
lowerback 25.6891 -0.710625 -3.8032
upperback 6.14376 -2.84251 5.74366
thorax -6.93111 -1.9052 9.59527
lowerneck -12.3164 -2.42411 -2.88955
upperneck -7.78715 -3.73968 4.14464
head -0.257782 -2.20375 1.65835
rclavicle 4.39314e-014 -5.96354e-015
rhumerus -29.3004 4.53221 -62.087
rradius 129.376
rwrist -23.9627
rhand 0.346766 38.7312
rfingers 7.12502
rthumb 25.9225 -349.521
lclavicle 4.39314e-014 -5.96354e-015
lhumerus 1.18982 -29.5437 65.3167
lradius 126.351
lwrist 21.4817
lhand -11.9154 10.916
lfingers 7.12502
lthumb 14.1385 40.415
rfemur -47.8972 -12.2322 22.2359
rtibia 68.6123
rfoot -23.0584 -12.7384
rtoes 9.82208
lfemur -52.0121 -2.10918 -11.8121
ltibia 68.7049
lfoot -21.0061 -8.0812
ltoes -8.33716
1112
root 6.74249 16.2459 11.3319 -171.127 -12.899 -177.944
lowerback 26.2082 -0.21956 -4.66425
upperback 6.15029 -2.47056 4.85301
thorax -7.2646 -1.68055 9.00523
lowerneck -11.9743 -2.52192 -2.84836
upperneck -7.89688 -3.8625 4.19462
head -0.343018 -2.26328 1.6686
rclavicle -2.05742e-014 3.33958e-014
rhumerus -28.8847 5.1906 -62.6189
rradius 129.252
rwrist -23.7415
rhand 0.651011 38.9696
rfingers 7.12502
rthumb 26.2138 -349.24
lclavicle -2.05742e-014 3.33958e-014
lhumerus -0.261201 -28.7321 65.6365
lradius 126.83
lwrist 21.6777
lhand -14.2532 12.0225
lfingers 7.12502
lthumb 11.8849 41.6652
rfemur -48.6589 -11.6489 20.1761
rtibia 70.0289
rfoot -23.0392 -12.435
rtoes 8.35813
lfemur -51.8864 -1.46528 -13.8861
ltibia 69.4276
lfoot -21.5097 -7.42121
ltoes -9.43285
1113
root 6.69072 16.1622 11.3615 -171.035 -11.3155 -179.642
lowerback 26.4321 0.176871 -5.39189
upperback 6.30466 -2.23899 3.8734
thorax -7.26556 -1.56348 8.24504
lowerneck -11.9758 -2.6413 -3.08744
upperneck -7.95392 -3.98783 4.60377
head -0.340924 -2.32218 1.83912
rclavicle 3.69739e-014 -7.95139e-015
rhumerus -28.0453 5.90505 -63.3589
rradius 129.026
rwrist -23.3655
rhand 0.797711 39.5388
rfingers 7.12502
rthumb 26.3542 -348.65
lclavicle 3.69739e-014 -7.95139e-015
lhumerus -1.61901 -27.7145 65.7001
lradius 127.334
lwrist 21.847
lhand -13.1467 11.2428
lfingers 7.12502
lthumb 12.9518 40.8209
rfemur -49.4492 -11.1102 17.9962
rtibia 71.4065
rfoot -23.0259 -12.0401
rtoes 6.7004
lfemur -51.8067 -0.735528 -16.1024
ltibia 70.1089
lfoot -21.9464 -6.96733
ltoes -11.9636
1114
root 6.6359 16.0805 11.3915 -170.952 -9.53968 -181.343
lowerback 26.5913 0.605327 -6.13536
upperback 6.437 -1.99233 2.84492
thorax -7.25931 -1.44605 7.43613
lowerneck -11.9405 -2.78207 -3.52638
upperneck -7.91505 -4.10472 5.16518
head -0.304902 -2.36536 2.09605
rclavicle -1.53064e-014 -3.97569e-016
rhumerus -27.0751 6.8753 -64.3013
rradius 128.815
rwrist -22.3656
rhand 0.164792 38.9282
rfingers 7.12502
rthumb 25.7482 -349.35
lclavicle -1.53064e-014 -3.97569e-016
lhumerus -2.98332 -26.5776 65.8994
lradius 127.739
lwrist 21.9682
lhand -15.0028 11.2095
lfingers 7.12502
lthumb 11.1621 40.8926
rfemur -50.3126 -10.5824 15.7857
rtibia 72.6814
rfoot -23.0801 -11.421
rtoes 5.09553
lfemur -51.7124 0.158688 -18.3582
ltibia 70.7699
lfoot -22.5094 -6.49324
ltoes -11.1413
1115
root 6.58664 16.0012 11.4232 -171.006 -7.52617 -182.587
lowerback 26.8847 1.1159 -6.51282
upperback 6.46347 -1.56417 1.80847
thorax -7.47406 -1.23701 6.36269
lowerneck -11.7412 -2.95935 -3.6658
upperneck -7.87312 -4.30235 5.54607
head -0.301037 -2.45376 2.24114
rclavicle -2.99668e-014 -9.93923e-016
rhumerus -26.326 7.77002 -65.2338
rradius 128.7
rwrist -21.5967
rhand -0.844208 37.7836
rfingers 7.12502
rthumb 24.7815 -350.631
lclavicle -2.99668e-014 -9.93923e-016
lhumerus -4.44653 -25.5468 65.9895
lradius 128.166
lwrist 22.3442
lhand -12.4618 10.729
lfingers 7.12502
lthumb 13.6119 40.264
rfemur -51.2536 -9.78771 14.0952
rtibia 73.8722
rfoot -23.2063 -10.6674
rtoes 4.15017
lfemur -51.7361 1.40675 -20.1204
ltibia 71.5125
lfoot -23.1098 -5.79992
ltoes -11.518
1116
root 6.53205 15.9096 11.4496 -170.989 -5.44664 -183.534
lowerback 26.9487 1.57904 -6.47318
upperback 6.49224 -1.08788 0.731535
thorax -7.5756 -1.02218 4.97834
lowerneck -11.5262 -3.12846 -3.75675
upperneck -8.01132 -4.50982 5.95374
head -0.356732 -2.55965 2.38986
rclavicle -3.04638e-014 1.53064e-014
rhumerus -25.6043 8.48354 -65.994
rradius 128.581
rwrist -21.4427
rhand -2.0619 36.7348
rfingers 7.12502
rthumb 23.614 -351.835
lclavicle -3.04638e-014 1.53064e-014
lhumerus -5.65019 -24.5122 65.8989
lradius 128.511
lwrist 22.7487
lhand -12.4145 10.7341
lfingers 7.12502
lthumb 13.6575 40.266
rfemur -52.4568 -8.80489 12.724
rtibia 75.0553
rfoot -23.5407 -9.8236
rtoes 4.61989
lfemur -52.1319 2.87549 -21.6031
ltibia 72.3541
lfoot -23.7944 -5.02396
ltoes -13.676
1117
root 6.4706 15.8175 11.474 -170.935 -3.52552 -184.848
lowerback 27.0155 1.96253 -6.74931
upperback 6.51568 -0.826188 -0.331531
thorax -7.63557 -0.917216 3.86726
lowerneck -11.4245 -3.20294 -4.17089
upperneck -8.1587 -4.5619 6.3649
head -0.396387 -2.58271 2.60452
rclavicle 2.17265e-014 9.55409e-015
rhumerus -24.7232 9.53975 -66.595
rradius 128.476
rwrist -20.9955
rhand 0.250485 39.5412
rfingers 7.12502
rthumb 25.8303 -348.725
lclavicle 2.17265e-014 9.55409e-015
lhumerus -6.80598 -23.0734 65.9129
lradius 128.688
lwrist 22.8808
lhand -13.4137 11.189
lfingers 7.12502
lthumb 12.6944 40.7832
rfemur -53.7442 -8.05049 10.9214
rtibia 76.2507
rfoot -23.8977 -9.00864
rtoes 4.38762
lfemur -52.5141 4.07889 -23.4938
ltibia 73.1453
lfoot -24.522 -4.28054
ltoes -13.8271
1118
root 6.41595 15.7295 11.5048 -171.096 -1.71245 -186.443
lowerback 27.367 2.46123 -7.45391
upperback 6.59585 -0.603294 -1.28078
thorax -7.75575 -0.845986 3.14758
lowerneck -11.2485 -3.31403 -4.61088
upperneck -8.54623 -4.68133 6.5725
head -0.527996 -2.6512 2.76007
rclavicle -2.80783e-015 -3.95085e-015
rhumerus -23.5911 10.59 -66.898
rradius 128.401
rwrist -20.7128
rhand 0.235081 39.7055
rfingers 7.12502
rthumb 25.8155 -348.563
lclavicle -2.80783e-015 -3.95085e-015
lhumerus -7.89363 -21.3963 65.7673
lradius 128.96
lwrist 23.1054
lhand -14.0722 11.6853
lfingers 7.12502
lthumb 12.0595 41.3178
rfemur -54.8061 -7.42594 8.80218
rtibia 77.3897
rfoot -24.064 -8.29324
rtoes 3.72671
lfemur -52.6358 5.07278 -25.6324
ltibia 73.8851
lfoot -25.0675 -3.58846
ltoes -15.5752
1119
root 6.36789 15.6428 11.5388 -171.313 0.114113 -187.763
lowerback 27.7699 3.06191 -8.02501
upperback 6.6697 -0.22903 -2.10625
thorax -7.91917 -0.709432 2.43291
lowerneck -11.026 -3.51701 -5.14978
upperneck -8.94923 -4.90747 6.97119
head -0.657617 -2.77033 2.99789
rclavicle -4.44781e-015 -2.88238e-015
rhumerus -22.2919 11.122 -66.9195
rradius 128.253
rwrist -20.9679
rhand -0.26959 39.1472
rfingers 7.12502
rthumb 25.3321 -349.19
lclavicle -4.44781e-015 -2.88238e-015
lhumerus -8.80725 -19.8863 65.6244
lradius 129.29
lwrist 23.3969
lhand -13.8408 12.1038
lfingers 7.12502
lthumb 12.2826 41.7231
rfemur -55.8632 -6.69482 7.03586
rtibia 78.4207
rfoot -24.093 -7.71685
rtoes 3.16969
lfemur -52.8741 6.19976 -27.4138
ltibia 74.631
lfoot -25.5166 -3.20089
ltoes -17.2566
